<?xml version="1.0" ?><svg viewBox="0 0 512 512" xmlns="http://www.w3.org/2000/svg"><g id="Nursing_home_hospital"><path d="M483.8913,169.8311,260.9093,16.0693a16.5815,16.5815,0,0,0-18.7246,0L19.2,169.8311a11.2142,11.2142,0,0,0,6.3662,20.4462H39.3683v97.752a6,6,0,0,0,12,0v-97.752H450.2541v97.752a6,6,0,1,0,12,0v-97.752h15.2705a11.2143,11.2143,0,0,0,6.3667-20.4462Zm-192.356-51.4239a3.5717,3.5717,0,0,1-3.5718,3.5717h-20.35a3.5718,3.5718,0,0,0-3.5718,3.5718V145.9a3.5717,3.5717,0,0,1-3.5715,3.5718H242.621a3.5718,3.5718,0,0,1-3.5718-3.5718v-20.35a3.5717,3.5717,0,0,0-3.5718-3.5718h-20.35a3.5717,3.5717,0,0,1-3.5718-3.5717V100.5581a3.5717,3.5717,0,0,1,3.5718-3.5718h20.35a3.5717,3.5717,0,0,0,3.5718-3.5717v-20.35a3.5717,3.5717,0,0,1,3.5718-3.5718H260.47a3.5717,3.5717,0,0,1,3.5715,3.5718v20.35a3.5718,3.5718,0,0,0,3.5718,3.5717h20.35a3.5717,3.5717,0,0,1,3.5718,3.5718Z"/><path d="M465.6542,390.8239a11.5436,11.5436,0,0,0-.7229-7.2917c-8.459-18.8906-17.3091-47.0293-24.8506-72.0644-7.2659-24.12-23.1409-30.735-31.9092-33.4519a33.8529,33.8529,0,0,0,2.0069-11.5052c0-.9466-.0476-1.8818-.1258-2.8086h6.8665a5.6593,5.6593,0,0,0,5.71-4.96,5.501,5.501,0,0,0-5.4741-6.04h-6.977V236.188a25.3594,25.3594,0,0,0-25.3594-25.3594h-16.81A25.3593,25.3593,0,0,0,342.65,236.188v16.5141h-6.74a5.66,5.66,0,0,0-5.7109,4.9588,5.5012,5.5012,0,0,0,5.4741,6.0412h6.5945c-.0781.9268-.1257,1.862-.1257,2.8086a33.8632,33.8632,0,0,0,1.7207,10.6617c-8.2329,2.3568-21.1861,8.3925-28.0933,23.6547a44.9828,44.9828,0,0,0-3.6611,13.8584l-.8482,8.0672a55.11,55.11,0,0,0-25.0864-21.6055A33.7541,33.7541,0,0,0,289.2191,289.3a22.15,22.15,0,0,0-15.1355-41.2305,2.2273,2.2273,0,0,1-2.14-.7583,22.15,22.15,0,0,0-33.2974,0,2.2264,2.2264,0,0,1-2.1381.7583,22.1591,22.1591,0,0,0-26.96,20.0991,22.091,22.091,0,0,0,11.8225,21.1316,33.7663,33.7663,0,0,0,2.5146,10.65c-9.62,3.3649-26.3732,11.8483-31.7048,31.1-.0871.3144-.1763.6164-.2639.9282l-1.7766-16.76a44.9734,44.9734,0,0,0-3.6616-13.8565c-6.9068-15.2623-19.86-21.298-28.0928-23.6549a33.8643,33.8643,0,0,0,1.7207-10.6615c0-1.1083-.0708-2.1991-.176-3.28a22.151,22.151,0,0,0-15.3094-41.1393,2.222,2.222,0,0,1-2.1391-.7573,22.1488,22.1488,0,0,0-33.2964,0,2.2356,2.2356,0,0,1-2.1406.7578,22.1609,22.1609,0,0,0-26.958,20.1006,22.1112,22.1112,0,0,0,12.13,21.2923c-.0889.9984-.1477,2.0053-.1477,3.0265a33.8591,33.8591,0,0,0,2.0068,11.5051c-8.7683,2.717-24.643,9.3321-31.9092,33.4519-7.5415,25.0352-16.3916,53.1739-24.851,72.0655a11.543,11.543,0,0,0-.7227,7.2909,18.1022,18.1022,0,0,0-10.8081,16.51v5.9667a5.5,5.5,0,0,0,11,0V407.87a7.0588,7.0588,0,0,1,6.9653-7.0362c.0249-.001.0494-.001.0743-.001a7.0358,7.0358,0,0,1,7.0336,7.0372v89.25a5.5,5.5,0,0,0,11,0V408.5811a11.4349,11.4349,0,0,0,3.1094.45,11.6169,11.6169,0,0,0,3.7652-.6319,11.4949,11.4949,0,0,0,6.7119-5.9882c2.5132-5.2871,6.3169-13.8116,10.14-24.3233.0161-.0423.322-.8514.8418-2.2484l-8.499,115.7523a10.2791,10.2791,0,0,0,10.2515,11.0323h23.4365a10.2929,10.2929,0,0,0,10.26-9.6573l.5179-70.2574c.1811-4.87,2.5964-5.5762,3.5957-5.6527h.8784c1.0288.0787,3.5691.806,3.615,6.0786l.5444,69.8315a10.2933,10.2933,0,0,0,10.26,9.6573h23.4668a10.2777,10.2777,0,0,0,10.2553-10.9707l-6.8-100.7936a11.2192,11.2192,0,0,0,.5324,1.9834,11.0736,11.0736,0,0,0,7.1148,6.7021l7.499,2.3324a12.0353,12.0353,0,0,1,3.8472,8.5055v86.2051a5.5,5.5,0,0,0,11,0V410.3828a20.537,20.537,0,0,0-1.0528-6.4547,4.673,4.673,0,0,1,.9083-2.141c17.7387-29.24,18.0878-48.9932,18.0893-49.1885a4.3577,4.3577,0,0,1,4.35-4.3261h.0166a4.3428,4.3428,0,0,1,4.334,4.3418c0,.8378-.2017,19.7534-16.2119,48.3L205.7033,438.77a5.4987,5.4987,0,0,0,5.4834,5.9248h10.6924l1.8906,48.295a9.4384,9.4384,0,0,0,9.4585,9.0947h41.5512a9.4385,9.4385,0,0,0,9.4585-9.0957l1.8907-48.294h11.0083a5.5,5.5,0,0,0,5.4682-6.09l-1.8933-17.5671a48.9959,48.9959,0,0,1-16.3723-6.0306,14.73,14.73,0,0,1-5.5254-18.6,70.0786,70.0786,0,0,0,5.0322-42.6894,4.35,4.35,0,0,1,8.4126-2.2168c.25.9433,5.9869,23.4013-5.5366,48.5322a6.0084,6.0084,0,0,0,2.2276,7.5947c2.98,1.8626,8.0935,4.0911,16.4892,5.4063h27.0674l-5.2681,78.082a10.2778,10.2778,0,0,0,10.2554,10.9717h23.4668a10.2934,10.2934,0,0,0,10.26-9.6582l.5232-71.9071a4.03,4.03,0,0,1,8.0606-.0026l.5676,71.91a10.2932,10.2932,0,0,0,10.26,9.6582h23.2651a10.6756,10.6756,0,0,0,2.1011-.1873,10.2722,10.2722,0,0,0,8.3218-10.844l-8.4988-115.7525c.5073,1.3634.8044,2.1489.8157,2.1783,3.778,10.3875,7.5083,18.7822,10.0194,24.0847a11.9988,11.9988,0,0,0,6.3648,6.1153,11.6631,11.6631,0,0,0,4.2583.8127,11.43,11.43,0,0,0,3.1089-.45v88.3025a5.66,5.66,0,0,0,4.96,5.7107,5.5013,5.5013,0,0,0,6.04-5.4741V407.5752a7.3567,7.3567,0,0,1,1.7634-4.901,6.9966,6.9966,0,0,1,5.2718-2.3773c.0244,0,.0493,0,.0737.001a7.0586,7.0586,0,0,1,6.9648,7.0361v5.73a5.66,5.66,0,0,0,4.96,5.7107,5.5013,5.5013,0,0,0,6.04-5.4741V407.334A18.1022,18.1022,0,0,0,465.6542,390.8239ZM94.0412,251.8649a11.1562,11.1562,0,0,1,7.2607-18.7388,11.2757,11.2757,0,0,1,3.335.2344,13.2205,13.2205,0,0,0,12.8139-4.2329,11.1494,11.1494,0,0,1,16.7661,0,13.2171,13.2171,0,0,0,12.8125,4.2324,11.2824,11.2824,0,0,1,3.336-.2344h.0005a11.1564,11.1564,0,0,1,7.2607,18.7383,11.154,11.154,0,0,1-16.6748-.4209,12.5717,12.5717,0,0,0-9.6548-4.4155,13.4585,13.4585,0,0,0-2.9868.3378,11.2865,11.2865,0,0,1-4.9531,0,12.7365,12.7365,0,0,0-12.6411,4.0777,11.1545,11.1545,0,0,1-16.6748.4214Zm55.0654,15.1816a23.0186,23.0186,0,1,1-46.0371,0c0-.225.0234-.444.03-.6673a22.1113,22.1113,0,0,0,16.0185-7.8366,1.8259,1.8259,0,0,1,1.7988-.4512,22.3359,22.3359,0,0,0,9.8335,0,1.8307,1.8307,0,0,1,1.8.4512,22.11,22.11,0,0,0,16.5332,7.8507C149.09,266.6115,149.1066,266.8269,149.1066,267.0465Zm20.5327,116.099a11.0371,11.0371,0,0,0-1.595,5.2681l-3.7175-55.1a5.5,5.5,0,1,0-10.9746.74l1.6753,24.8311H98.7008l1.814-24.7037.001-.0127.0058-.0824c.0037-.049.001-.097.0034-.1457.0059-.1259.0113-.2515.0086-.3764-.0012-.0686-.0081-.136-.012-.2041-.0063-.1109-.0127-.2215-.0258-.331-.01-.0848-.0254-.1677-.04-.2513-.0151-.09-.0291-.18-.0486-.2695-.021-.0957-.0473-.1892-.0732-.283-.0208-.0757-.04-.1514-.0642-.2258-.0318-.0983-.0686-.1939-.1055-.29-.0269-.069-.0522-.1383-.0815-.2062-.04-.0925-.085-.1826-.13-.2726-.0347-.0692-.0681-.1387-.1055-.2064-.0454-.0818-.0947-.1605-.1438-.24-.0452-.0729-.09-.1459-.1384-.2167-.0476-.0689-.0987-.1351-.1492-.2019-.0574-.0759-.1145-.1517-.176-.2247-.0486-.0576-.1-.1124-.1511-.1681-.0691-.0757-.1385-.151-.212-.2229-.0517-.0508-.1066-.0984-.16-.1471-.0769-.07-.1535-.1385-.2346-.2039-.061-.0491-.125-.0944-.1882-.1409-.0781-.0577-.1555-.1156-.2373-.1692-.0774-.0511-.158-.0972-.2383-.1443-.0713-.0419-.1416-.0851-.2151-.1238-.1018-.0537-.207-.1011-.3125-.1487-.0574-.0256-.1133-.0537-.1719-.0776-.123-.05-.25-.0933-.3774-.1348-.04-.013-.0774-.03-.1179-.0421l-.0269-.0067c-.1067-.0315-.2163-.0559-.3257-.0811-.08-.0185-.16-.04-.24-.0547-.0608-.0112-.1233-.0173-.1848-.0266-.13-.02-.26-.0382-.3894-.0483l-.0183-.0023c-.0239-.0017-.0474,0-.0713-.0016-.1616-.01-.3227-.0144-.4826-.01-.0152,0-.03.002-.045.0025-.1687.006-.3357.0187-.5017.04-.021.0028-.0417.007-.063.01-.1557.0219-.31.0489-.4624.0838-.0337.0075-.0661.0174-.1.0256-.1377.0344-.2741.0719-.4084.1167-.043.0142-.0845.031-.127.0461-.1233.0445-.2451.0911-.3645.144-.0469.0206-.0918.0438-.1379.0658-.1128.0537-.2244.1091-.3333.17-.0464.0261-.0913.0547-.1372.0822-.105.0633-.2087.1279-.3095.198-.0445.031-.0872.0644-.1309.0966-.0977.0724-.1941.1461-.2871.2249-.0423.036-.0825.0741-.1238.1114-.0886.08-.1763.1609-.26.2468-.0425.044-.0825.09-.1235.1353-.0762.0836-.1514.1675-.2227.2561-.0456.0569-.0879.1167-.1313.1755-.06.0811-.12.1616-.1758.2466-.05.0762-.0955.1554-.1419.2341-.0427.0727-.0864.1441-.1259.219-.052.0984-.0979.2006-.1441.3028-.0276.0612-.0571.1208-.0828.1833-.0473.1165-.0876.2361-.1272.3565-.0151.0457-.0344.089-.0485.1353l-.0264.0871,0,.0022c-5.69,18.8571-14.3574,41.7755-14.4707,42.0738-3.7007,10.1758-7.3516,18.3574-9.7622,23.43a.5669.5669,0,0,1-.3394.3037.5747.5747,0,0,1-.4589-.0322l-17.0855-8.6318a.5856.5856,0,0,1-.271-.7637c8.7139-19.46,17.7012-48.0176,25.3438-73.3867,6.2793-20.8448,19.6738-24.7061,26.87-26.78l.0513-.0126a33.9642,33.9642,0,0,0,53.4677-.6777c5.8316,1.272,17.5674,5.3714,23.3687,18.1913a34.0241,34.0241,0,0,1,2.7441,10.4785l4.2571,40.1588A200.4038,200.4038,0,0,1,169.6393,383.1455ZM248.5041,491.084H234.7033l-1.8164-46.39h15.6172Zm24.8,0h-13.8v-46.39h15.6167Zm-18.0092-181.17a23.0549,23.0549,0,0,1-22.4839-18.0992,22.113,22.113,0,0,0,15.7666-7.8295,1.828,1.828,0,0,1,1.8047-.45,22.2917,22.2917,0,0,0,9.83-.002,1.8363,1.8363,0,0,1,1.7988.4512,22.1178,22.1178,0,0,0,15.7681,7.8305A23.055,23.055,0,0,1,255.2951,309.9141Zm23.6411-29.0674a11.14,11.14,0,0,1-8.5235-3.9629,12.5743,12.5743,0,0,0-9.6533-4.4141,13.4655,13.4655,0,0,0-2.9844.3369,11.286,11.286,0,0,1-4.956.002,12.7366,12.7366,0,0,0-12.6426,4.0762,11.1558,11.1558,0,1,1-9.4131-18.3174,11.3015,11.3015,0,0,1,3.336.2353,13.2068,13.2068,0,0,0,12.812-4.2329,11.15,11.15,0,0,1,16.7671,0,13.23,13.23,0,0,0,12.8139,4.2329,11.285,11.285,0,0,1,3.334-.2353h.001a11.157,11.157,0,0,1,7.26,18.74A11.05,11.05,0,0,1,278.9362,280.8467Zm77.0527-17.1446h40.3418a2.8254,2.8254,0,0,1,2.8476,2.78l0,.0285a23.0186,23.0186,0,1,1-46.0371,0v-.0285A2.8255,2.8255,0,0,1,355.9889,263.7021Zm98.63,125.0918-17.0835,8.629a.5861.5861,0,0,1-.7983-.2706c-2.4092-5.0673-6.0586-13.2451-9.7886-23.499-.0869-.2295-8.7788-23.21-14.4712-42.0937-.0171-.057-.0405-.11-.0593-.1663-.0359-.1063-.0711-.2126-.113-.3158-.0334-.0826-.0722-.1616-.1093-.2418s-.0724-.16-.1132-.2378c-.0542-.1042-.1142-.2036-.1747-.3032-.0291-.0479-.0564-.0969-.087-.1438-.0774-.1194-.1607-.2334-.2463-.3454-.0186-.024-.0359-.0492-.0547-.0728-.0992-.125-.2039-.2442-.3128-.3594l-.0272-.03q-.1752-.1827-.3661-.3474l-.0124-.0112q-.1954-.1682-.4049-.3167l-.01-.0074q-.21-.1482-.4315-.2758l-.0156-.0093q-.22-.126-.4518-.2309l-.0226-.0109q-.23-.1036-.47-.1854l-.0279-.01q-.2418-.0816-.491-.14l-.0253-.0066c-.168-.0391-.3381-.07-.51-.0928l-.0248-.0039q-.2535-.0325-.5111-.041c-.0144-.0006-.0288-.0022-.0434-.0026-.1514-.004-.3038,0-.4567.0092-.0324.0017-.0639,0-.0964.0019l-.0252.0032c-.1182.0094-.2365.0268-.355.0442-.0724.01-.1456.0178-.2172.031-.0732.0137-.1465.0334-.22.05-.1145.0259-.229.0515-.3406.0844l-.0268.0066c-.04.0122-.0779.0291-.1178.042-.1276.0417-.2543.0845-.3773.1349-.0589.0239-.1145.0519-.1722.0778-.1053.0473-.2107.0947-.3122.1484-.0738.0388-.1438.082-.2152.1238-.08.0472-.161.0934-.2384.1444-.0817.0536-.1592.1116-.2373.1691-.0632.0466-.1271.092-.188.1411-.0811.0652-.1577.1345-.2346.2038-.054.0487-.1087.0964-.1607.147-.0735.072-.1426.1474-.2118.223-.0509.0557-.1024.1105-.151.1681-.0615.073-.1186.1488-.1761.2249-.0507.0666-.1016.1328-.1491.2019-.0486.0707-.0932.1437-.1384.2165-.0493.0791-.0986.158-.1438.24-.0374.0679-.0711.1372-.1056.2066-.045.09-.09.18-.13.2727-.0293.0677-.0547.1371-.0813.206-.037.0959-.0739.1914-.1055.29-.024.0745-.0434.15-.0644.2258-.0259.094-.0523.1874-.0731.2831-.02.089-.0336.1793-.0488.2694-.0139.0838-.03.1668-.04.2515-.0132.11-.0193.22-.0259.3309-.0039.0681-.01.1354-.0119.204-.0027.125.0026.2506.0086.3765.0023.0488,0,.0966.0033.1457l.0061.0825.0009.0126,1.8138,24.7037H347.22l1.6591-24.5919a5.6621,5.6621,0,0,0-4.5568-6.0333,5.5031,5.5031,0,0,0-6.4017,5.0539l-4.6726,69.2569H315.0553c6.2561-23.2634,7.107-41.4009,4.7688-55.5351l3.2229-30.6612a34.027,34.027,0,0,1,2.7432-10.4756c5.8017-12.82,17.5378-16.9192,23.3694-18.1912a33.9642,33.9642,0,0,0,53.4687.6763l.0325.0081.0176.0058c7.1963,2.0742,20.5908,5.9356,26.87,26.78,7.6431,25.371,16.6312,53.9309,25.3452,73.39A.584.584,0,0,1,454.6193,388.7939Z"/></g></svg>