<?xml version="1.0" encoding="UTF-8"?><svg xmlns="http://www.w3.org/2000/svg" xmlns:xlink="http://www.w3.org/1999/xlink" viewBox="0 0 1920 200"><defs><style>.g{fill:url(#f);}.h{fill:#fbfbfb;}</style><linearGradient id="f" x1="0" y1="1032" x2="1920" y2="1032" gradientTransform="translate(0 1082) scale(1 -1)" gradientUnits="userSpaceOnUse"><stop offset="0" stop-color="#99a4f9"/><stop offset="1" stop-color="#ce99f9"/></linearGradient></defs><g id="a"/><g id="b"><g id="c"><rect class="h" width="1920" height="200"/><g id="d"><g id="e"><path class="g" d="M1920,.37V75.46c-.08,.01-.17,.03-.25,.04-.53,.06-1.05,.15-1.57,.22-19.38,3.1-38.79,7.98-58.18,12.07-3.34,.71-6.69,1.38-10.03,2.03-24.8,4.76-49.55,7.44-74.12,2.53-10.81-2.16-21.15-5.73-31.35-9.66-21.04-8.06-41.5-17.55-64.35-18.92-34.88-2.09-66.6,15.04-98.62,26.83-11.82,4.36-24.66,8.1-37.42,6.43-11.08-1.47-20.77-6.83-30.78-11.07-17.93-7.57-37.91-11.63-57.99-12.01-10.3-.21-20.63,.56-30.72,2.31-4.97,.84-9.88,1.94-14.7,3.27-28.24,7.82-55.44,23.67-84.82,19.87-23.92-3.08-42.86-18.67-65.91-24.83-40.11-10.73-82.39,8.59-123.8,16.37-18.55,3.48-36.93,4.65-54.86-.22-14.16-3.85-26.56-11.23-40.27-16.07-3.23-1.14-6.53-2.13-9.87-2.98-3.42-.86-6.88-1.56-10.39-2.1-20.08-3.17-41.31-1.26-60,5.67v.21c-.08,.01-.17,.03-.25,.04-.53,.06-1.05,.15-1.57,.22-19.38,3.1-38.79,7.98-58.18,12.07-3.34,.71-6.69,1.38-10.03,2.03-24.8,4.76-49.55,7.44-74.12,2.53-10.81-2.16-21.15-5.73-31.35-9.66-21.04-8.06-41.5-17.55-64.35-18.92-34.88-2.09-66.6,15.04-98.62,26.83-11.82,4.36-24.66,8.1-37.42,6.43-11.08-1.47-20.77-6.83-30.78-11.07-17.93-7.57-37.91-11.63-57.99-12.01-10.3-.21-20.63,.56-30.72,2.31-4.97,.84-9.88,1.94-14.7,3.27-28.24,7.82-55.44,23.67-84.82,19.87-23.92-3.08-42.86-18.67-65.91-24.83-40.11-10.73-82.39,8.59-123.8,16.37-18.55,3.48-36.93,4.65-54.86-.22-14.16-3.85-26.56-11.23-40.27-16.07-3.23-1.14-6.53-2.13-9.87-2.98-3.42-.86-6.88-1.56-10.39-2.1-20.08-3.17-41.31-1.26-60,5.67V0H959.75V.37h.25v-.37h959.75V.37h.25Z"/></g></g></g></g></svg>