<?xml version="1.0" encoding="UTF-8"?><svg xmlns="http://www.w3.org/2000/svg" xmlns:xlink="http://www.w3.org/1999/xlink" viewBox="0 0 1919 1080"><defs><style>.f{isolation:isolate;}.g{fill:url(#e);}.g,.h{mix-blend-mode:screen;}.h{fill:url(#d);}</style><linearGradient id="d" x1="-176.16" y1="1386.3" x2="1739.78" y2="315.15" gradientTransform="matrix(1, 0, 0, 1, 0, 0)" gradientUnits="userSpaceOnUse"><stop offset="0" stop-color="#99a4f9" stop-opacity=".5"/><stop offset="1" stop-color="#0c23d0"/></linearGradient><linearGradient id="e" x1="-156.98" y1="1373.1" x2="1764.39" y2="293.56" gradientTransform="matrix(1, 0, 0, 1, 0, 0)" gradientUnits="userSpaceOnUse"><stop offset="0" stop-color="#ce99f9" stop-opacity=".5"/><stop offset="1" stop-color="#780cd0"/></linearGradient></defs><g class="f"><g id="a"/><g id="b"><g id="c"><g><path class="h" d="M1918.34,1076.91H1v-173.4c6.43-46.16,42.23-96.6,58.92-111.79,56.75-51.63,82.08-80.26,93.34-110.18,.28-.76,.56-1.51,.82-2.27,4.97-14.11,6.94-28.63,7.7-46.1,3-68.98-3-57.66,8.99-175.03,11.91-116.68,131.11-227.17,218.7-233.71,151.79-11.33,53.93,0,127.82-11.33,36.91-5.66,67.7-31.17,97.91-62.61,.66-.69,1.32-1.37,1.98-2.07,46.1-48.41,91.1-109.91,154.71-134.99h.01c18.3-7.2,38.12-11.39,59.96-11.39,118.84,0,199.73-2.06,308.58-2.06,67.9,0,51.81,83.39,209.71,83.39,113.2,0,180.88,1.14,219.56,23.05,.32,.18,.64,.37,.96,.56,33.94,19.76,45.12,56.04,45.12,122.58,0,129.83,14.29,120.24,96.86,187.38,11.81,9.61,17.13,11.97,29.96,19.56,196.83,116.36,173.25,198.21,174.31,278.28,.04,3.09,.11,6.17,.24,9.26"/><path class="g" d="M1918.01,1076.91c-.94,1.06-1.89,2.09-2.84,3.09H108.35l-108.35-3.09v-268.72c41.05-50.48,108.88-73.66,152.31-126.65,.62-.75,1.23-1.5,1.82-2.27,15.93-20.09,28.38-44.4,34.67-75.96,35.96-180.18,22.09-261.74,137.86-297.54,129.87-40.15,109.88,1.04,226.76-78.25,30.35-20.58,48.28-48.34,61.98-77.02,.33-.69,.66-1.38,.98-2.07,30.78-65.47,40.69-135.04,126.85-135.04,9.56,0,18.87,.02,27.93,.06h1c127.63,.62,207.8,5.09,302.73,5.09,68.11,0,95.43,68.15,153.84,86.48,68.93,21.62,115.88-9.27,263.72-9.27,25.74,0,51.69,3.73,76.79,10.7,.65,.18,1.31,.37,1.96,.56,86.71,24.72,162.97,88.23,184.99,170.98,6.83,25.66,11.52,86.07,29.96,126.63,25.74,56.57,117.73,121.49,131.87,241.66,.24,2.05,.46,4.12,.65,6.21,.13,1.31,.24,2.64,.34,3.96"/></g></g></g></g></svg>