<?xml version="1.0" encoding="UTF-8"?><svg xmlns="http://www.w3.org/2000/svg" xmlns:xlink="http://www.w3.org/1999/xlink" viewBox="0 0 1926.66 1049"><defs><style>.f{fill:url(#e);}.f,.g{mix-blend-mode:screen;opacity:.8;}.h{isolation:isolate;}.g{fill:url(#d);}</style><linearGradient id="d" x1="-89.15" y1="906.33" x2="1821.96" y2="-162.11" gradientTransform="matrix(1, 0, 0, 1, 0, 0)" gradientUnits="userSpaceOnUse"><stop offset="0" stop-color="#99a4f9" stop-opacity=".3"/><stop offset="1" stop-color="#0c23d0"/></linearGradient><linearGradient id="e" x1="-85.83" y1="909.94" x2="1825.28" y2="-163.83" gradientTransform="matrix(1, 0, 0, 1, 0, 0)" gradientUnits="userSpaceOnUse"><stop offset="0" stop-color="#ce99f9" stop-opacity=".3"/><stop offset="1" stop-color="#780cd0"/></linearGradient></defs><g class="h"><g id="a"/><g id="b"><g id="c"><path class="g" d="M1925.66,3V171.42c-6.44,44.83-42.29,93.83-59,108.58-56.83,50.15-82.19,77.96-93.47,107.02-5.59,14.4-7.73,29.1-8.53,46.98-3,67,3,56-9,170-11.93,113.33-131.29,220.65-219,227-152,11-54,0-128,11-37.77,5.62-69.14,31.37-100.02,62.83-46.16,47.01-91.23,106.76-154.94,131.11-18.32,6.99-38.17,11.06-60.04,11.06-119,0-200,2-309,2-68,0-51.89-81-210-81-113.36,0-181.13-1.11-219.86-22.39-34.74-19.08-46.14-54.37-46.14-119.61,0-126.1-14.32-116.79-97-182-11.83-9.33-17.15-11.63-30-19C-23.04,507.62,10.32,426.4,6.87,345.72c-.22-5.24-.6-10.48-1.21-15.72-1.79-15.39-3.74-31.39-5.66-47.77,2.42,6.36,4.37,13.69,5.66,22.15V3H1925.66Z"/><path class="f" d="M1926.66,3V264c-41.1,49.03-108.99,71.54-152.47,123.02-16.82,19.92-29.99,44.17-36.53,75.98-36,175-22.11,254.23-138,289-130,39-110-1-227,76-31.11,20.48-49.18,48.25-63.02,76.83-30.82,63.59-40.74,131.17-126.98,131.17-9.57,0-18.89-.02-27.96-.06-128.34-.58-208.77-4.94-304.04-4.94-68.18,0-95.53-66.2-154-84-69-21-116,9-264,9-25.76,0-51.74-3.62-76.86-10.39-87.62-23.62-164.94-85.63-187.14-166.61-6.84-24.93-11.53-83.6-30-123-25.76-54.95-117.85-118-132-234.73-2.33-19.23-2.55-39.92,0-62.27,.52-4.61,.93-9.03,1.21-13.28,1.11-16.17,.56-29.81-1.21-41.34V3c.94-1.03,1.89-2.03,2.84-3H1818.2l108.46,3Z"/></g></g></g></svg>