<?xml version="1.0" encoding="UTF-8"?><svg xmlns="http://www.w3.org/2000/svg" xmlns:xlink="http://www.w3.org/1999/xlink" viewBox="0 0 1920 67.5"><defs><style>.e{fill:url(#d);}</style><linearGradient id="d" x1="0" y1="33.75" x2="1920" y2="33.75" gradientTransform="matrix(1, 0, 0, 1, 0, 0)" gradientUnits="userSpaceOnUse"><stop offset="0" stop-color="#99a4f9"/><stop offset="1" stop-color="#ce99f9"/></linearGradient></defs><g id="a"/><g id="b"><g id="c"><path class="e" d="M1920,.25V50.94c-.08,.01-.17,.02-.25,.03-.53,.04-1.05,.1-1.57,.15-19.38,2.09-38.79,5.39-58.18,8.15-3.34,.48-6.69,.93-10.03,1.37-24.8,3.21-49.55,5.02-74.12,1.71-10.81-1.46-21.15-3.87-31.35-6.52-21.04-5.44-41.5-11.85-64.35-12.77-34.88-1.41-66.6,10.15-98.62,18.11-11.82,2.94-24.66,5.47-37.42,4.34-11.08-.99-20.77-4.61-30.78-7.47-17.93-5.11-37.91-7.85-57.99-8.11-10.3-.14-20.63,.38-30.72,1.56-4.97,.57-9.88,1.31-14.7,2.21-28.24,5.28-55.44,15.98-84.82,13.41-23.92-2.08-42.86-12.6-65.91-16.76-40.11-7.24-82.39,5.8-123.8,11.05-18.55,2.35-36.93,3.14-54.86-.15-14.16-2.6-26.56-7.58-40.27-10.85-3.23-.77-6.53-1.44-9.87-2.01-3.42-.58-6.88-1.05-10.39-1.42-20.08-2.14-41.31-.85-60,3.83v.14c-.08,.01-.17,.02-.25,.03-.53,.04-1.05,.1-1.57,.15-19.38,2.09-38.79,5.39-58.18,8.15-3.34,.48-6.69,.93-10.03,1.37-24.8,3.21-49.55,5.02-74.12,1.71-10.81-1.46-21.15-3.87-31.35-6.52-21.04-5.44-41.5-11.85-64.35-12.77-34.88-1.41-66.6,10.15-98.62,18.11-11.82,2.94-24.66,5.47-37.42,4.34-11.08-.99-20.77-4.61-30.78-7.47-17.93-5.11-37.91-7.85-57.99-8.11-10.3-.14-20.63,.38-30.72,1.56-4.97,.57-9.88,1.31-14.7,2.21-28.24,5.28-55.44,15.98-84.82,13.41-23.92-2.08-42.86-12.6-65.91-16.76-40.11-7.24-82.39,5.8-123.8,11.05-18.55,2.35-36.93,3.14-54.86-.15-14.16-2.6-26.56-7.58-40.27-10.85-3.23-.77-6.53-1.44-9.87-2.01-3.42-.58-6.88-1.05-10.39-1.42-20.08-2.14-41.31-.85-60,3.83V0H959.75V.25h.25v-.25h959.75V.25h.25Z"/></g></g></svg>