<?xml version="1.0" encoding="UTF-8"?><svg xmlns="http://www.w3.org/2000/svg" xmlns:xlink="http://www.w3.org/1999/xlink" viewBox="0 0 1920 84"><defs><style>.e{fill:url(#d);}</style><linearGradient id="d" x1="0" y1="42" x2="1920" y2="42" gradientTransform="matrix(1, 0, 0, 1, 0, 0)" gradientUnits="userSpaceOnUse"><stop offset="0" stop-color="#99a4f9"/><stop offset="1" stop-color="#ce99f9"/></linearGradient></defs><g id="a"/><g id="b"><g id="c"><path class="e" d="M1920,.31V63.39c-.17,.01-.34,.02-.5,.03-1.06,.06-2.1,.12-3.13,.19-38.76,2.6-77.59,6.71-116.37,10.14-6.69,.6-13.38,1.17-20.06,1.7-49.61,4-99.1,6.25-148.23,2.13-21.63-1.81-42.31-4.82-62.71-8.11-42.07-6.77-83-14.74-128.7-15.89-69.76-1.76-133.21,12.62-197.24,22.53-23.64,3.66-49.32,6.81-74.83,5.41-22.17-1.23-41.54-5.73-61.57-9.29-35.87-6.37-75.83-9.77-115.98-10.09-20.6-.17-41.26,.46-61.43,1.93-9.94,.72-19.76,1.64-29.41,2.76-56.47,6.57-110.87,19.88-169.65,16.68-47.83-2.59-85.7-15.68-131.81-20.85-80.23-9.01-164.77,7.22-247.61,13.75-37.09,2.93-73.84,3.91-109.71-.19-28.32-3.24-53.12-9.43-80.55-13.5-6.45-.96-13.04-1.79-19.74-2.5-6.83-.73-13.76-1.31-20.77-1.77-40.16-2.66-82.62-1.06-120,4.77V0H1919.5V.31h.5Z"/></g></g></svg>